<svg aria-hidden="true" style="position:absolute;width:0;height:0;overflow:hidden" xmlns="http://www.w3.org/2000/svg">
  <defs>
    <symbol id="icon-scroll-button" viewBox="0 0 32 32">
      <path fill="#fff" style="fill:var(--color1, #fff)" d="M16 32c8.837 0 16-7.163 16-16S24.837 0 16 0 0 7.163 0 16s7.163 16 16 16z"/>
      <path fill="#fd9222" style="fill:var(--color2, #fd9222)" d="M16.547 17.081a.773.773 0 0 1-1.094 0l-3.537-3.544a.772.772 0 0 0-1.094 1.088l3.543 3.543c.419.418.997.677 1.636.677s1.217-.259 1.636-.677l3.544-3.543a.773.773 0 0 0-1.097-1.089z"/>
    </symbol>
    <symbol id="icon-benefits-1" viewBox="0 0 32 32">
      <path fill="#111" style="fill:var(--color3, #111)" d="M13.822 2.413 21.35 9.95l.08-.08a.854.854 0 0 1 1.185-.012l.873.873c.305.304.316.77.084 1.093l-.005.008-.143.192 6.16 6.16c.55.55.55 1.43 0 1.98l-9.43 9.43c-.55.55-1.43.55-1.98 0l-4.447-4.448a.841.841 0 0 1-1.255.072l-2.6-2.6a.854.854 0 0 1-.012-1.185l.006-.008.077-.076-7.527-7.527c-.55-.55-.55-1.43 0-1.98l9.43-9.43c.55-.55 1.43-.55 1.98 0v.002zm6.582 8.48-1.756-1.755a.59.59 0 0 0-.85 0l-3.58 3.58a.607.607 0 0 0 0 .86l1.75 1.75.61-.61-1.566-1.566 3.21-3.22 1.57 1.575zm-5.075 5.072-1.755-1.754a.59.59 0 0 0-.85 0l-3.59 3.591c-.24.23-.24.61 0 .85l1.752 1.752.617-.616-1.57-1.564 3.22-3.21 1.563 1.563zm-6.507-7.77 3.58 3.58c.24.24.62.24.85-.01l3.58-3.58a.579.579 0 0 0 .18-.42h.01c0-.15-.06-.31-.18-.43l-3.58-3.58a.603.603 0 0 0-.86 0l-3.58 3.59c-.24.23-.24.61 0 .85zm-5.07 5.07 3.58 3.58c.24.24.62.24.85 0l3.58-3.58a.579.579 0 0 0 .18-.42v-.01.001h.01c0-.16-.06-.31-.18-.43l-3.58-3.58a.59.59 0 0 0-.85 0l-3.59 3.59c-.24.23-.24.61 0 .85zm6.933 8.753 2.362 2.364 9.636-13.04-.654-.655z"/>
      <path fill="#fd9222" style="fill:var(--color2, #fd9222)" d="M13.822 2.413 21.35 9.95l.08-.08a.854.854 0 0 1 1.185-.012l.873.873c.305.304.316.77.084 1.093l-.005.008-.143.192 6.16 6.16c.55.55.55 1.43 0 1.98l-9.43 9.43c-.55.55-1.43.55-1.98 0l-4.447-4.448a.841.841 0 0 1-1.255.072l-2.6-2.6a.854.854 0 0 1-.012-1.185l.006-.008.077-.076-7.527-7.527c-.55-.55-.55-1.43 0-1.98l9.43-9.43c.55-.55 1.43-.55 1.98 0v.002zm6.582 8.48-1.756-1.755a.59.59 0 0 0-.85 0l-3.58 3.58a.607.607 0 0 0 0 .86l1.75 1.75.61-.61-1.566-1.566 3.21-3.22 1.57 1.575zm-5.075 5.072-1.755-1.754a.59.59 0 0 0-.85 0l-3.59 3.591c-.24.23-.24.61 0 .85l1.752 1.752.617-.616-1.57-1.564 3.22-3.21 1.563 1.563zm-6.507-7.77 3.58 3.58c.24.24.62.24.85-.01l3.58-3.58a.579.579 0 0 0 .18-.42h.01c0-.15-.06-.31-.18-.43l-3.58-3.58a.603.603 0 0 0-.86 0l-3.58 3.59c-.24.23-.24.61 0 .85zm-5.07 5.07 3.58 3.58c.24.24.62.24.85 0l3.58-3.58a.579.579 0 0 0 .18-.42v-.01.001h.01c0-.16-.06-.31-.18-.43l-3.58-3.58a.59.59 0 0 0-.85 0l-3.59 3.59c-.24.23-.24.61 0 .85zm6.933 8.753 2.362 2.364 9.636-13.04-.654-.655z"/>
    </symbol>
    <symbol id="icon-benefits-2" viewBox="0 0 32 32">
      <path fill="#fd9222" style="fill:var(--color2, #fd9222)" d="M16 2.667c-7.333 0-13.333 6-13.333 13.333s6 13.333 13.333 13.333 13.333-6 13.333-13.333S23.333 2.667 16 2.667zm0 24c-5.867 0-10.667-4.8-10.667-10.667S10.133 5.333 16 5.333 26.667 10.133 26.667 16 21.867 26.667 16 26.667z"/>
      <path fill="#fd9222" style="fill:var(--color2, #fd9222)" d="M17.733 14.667h-3.466c-.667 0-1.2-.534-1.2-1.2 0-.667.533-1.2 1.2-1.2H19.2c.8 0 1.333-.534 1.333-1.334S20 9.6 19.2 9.6h-1.867V8.4c0-.8-.533-1.333-1.333-1.333S14.667 7.6 14.667 8.4v1.2h-.4a3.87 3.87 0 0 0-3.867 3.867 3.87 3.87 0 0 0 3.867 3.866H17.6c.667 0 1.2.534 1.2 1.2 0 .667-.533 1.2-1.2 1.2h-4.933c-.8 0-1.334.534-1.334 1.334s.534 1.333 1.334 1.333h2v1.2c0 .8.533 1.333 1.333 1.333s1.333-.533 1.333-1.333v-1.2h.4a3.87 3.87 0 0 0 3.867-3.867 3.87 3.87 0 0 0-3.867-3.866z"/>
    </symbol>
    <symbol id="icon-benefits-3" viewBox="0 0 32 32">
      <path fill="#fd9222" style="fill:var(--color2, #fd9222)" d="M15.451 14.106a5.127 5.127 0 0 1-1.176-3.278v-.004c0-4.324 5.181-8.642 10.362-8.642a5.184 5.184 0 0 1 5.181 5.182c0 5.182-4.317 10.364-8.646 10.364h-.003a5.13 5.13 0 0 1-3.287-1.184l.009.007L5.133 29.312a1.73 1.73 0 0 1-2.444-2.446l-.001.001 12.764-12.761z"/>
    </symbol>
    <symbol id="icon-facebook" viewBox="0 0 32 32">
      <path stroke-linejoin="round" stroke-linecap="round" stroke-width="2" d="M24 2.667h-4a6.667 6.667 0 0 0-6.667 6.667v4h-4v5.333h4v10.667h5.333V18.667h4l1.333-5.333h-5.333v-4c0-.736.597-1.333 1.333-1.333h4z"/>
    </symbol>
    <symbol id="icon-instagram" viewBox="0 0 32 32">
      <path stroke-linejoin="round" stroke-linecap="round" stroke-width="2" d="M22.667 2.667H9.334a6.667 6.667 0 0 0-6.667 6.667v13.333a6.667 6.667 0 0 0 6.667 6.667h13.333a6.667 6.667 0 0 0 6.667-6.667V9.334a6.667 6.667 0 0 0-6.667-6.667z"/>
      <path stroke-linejoin="round" stroke-linecap="round" stroke-width="2" d="M21.333 15.16a5.334 5.334 0 0 1-10.548 1.596l-.004-.03a5.334 5.334 0 0 1 10.548-1.596l.004.03z"/>
      <path stroke-linejoin="round" stroke-linecap="round" stroke-width="2" d="M21.333 15.16a5.334 5.334 0 0 1-10.548 1.596l-.004-.03a5.334 5.334 0 0 1 10.548-1.596l.004.03zm2-6.493h.013m-.013 0h.013"/>
    </symbol>
    <symbol id="icon-logo" viewBox="0 0 32 32">
      <path fill="#fcf1e0" style="fill:var(--color4, #fcf1e0)" d="M3.944 20.076 14.72 2.652l.64-.675 8.235 5.491.057 3.315 2.009 3.28-8.88 14.076z"/>
      <path fill="none" stroke="#fd9222" style="stroke:var(--color2, #fd9222)" stroke-linejoin="round" stroke-linecap="round" stroke-width="2.667" d="M21.635 23.88 7.448 15.016m3.913-6.417 14.185 8.864m-14.917 8.401L22.365 6.615m4.811 8.173c-3.04-1.899-4.233-3.383-2.277-6.591l-9.627-6.016L3.537 21.432l14.185 8.864z"/>
    </symbol>
    <symbol id="icon-made-list" viewBox="0 0 32 32">
      <path fill="#4c4c4c" style="fill:var(--color5, #4c4c4c);stroke:var(--color6, #eceded)" stroke="#eceded" stroke-width="4" d="M30 16c0 7.732-6.268 14-14 14S2 23.732 2 16 8.268 2 16 2s14 6.268 14 14z"/>
    </symbol>
    <symbol id="icon-mobile-menu-close-btn" viewBox="0 0 32 32">
      <path stroke-linejoin="round" stroke-linecap="round" stroke-width="2.286" d="M22.666 9.334 9.333 22.667m.001-13.333 13.333 13.333"/>
    </symbol>
    <symbol id="icon-mobile-menu-open-btn" viewBox="0 0 32 32">
      <path stroke-linejoin="round" stroke-linecap="round" stroke-width="2.286" d="M4 16h24M4 8h24M4 24h24"/>
    </symbol>
    <symbol id="icon-modal-checkbox" viewBox="0 0 32 32">
      <path d="M12.637 31.213c1.395 0 2.448-.534 3.162-1.606l15.45-23.28c.256-.381.448-.752.566-1.12.125-.381.186-.742.186-1.088 0-.96-.336-1.754-1.005-2.378a3.366 3.366 0 0 0-2.354-.955l-.092.001h.005c-.672 0-1.238.134-1.709.4-.458.256-.893.704-1.306 1.341L12.57 22.896l-6.496-7.782a3.343 3.343 0 0 0-2.587-1.223l-.059.001h.003c-.992 0-1.811.32-2.461.954A3.208 3.208 0 0 0 0 17.245v-.005c0 .435.064.848.202 1.238.144.381.406.774.787 1.187l8.618 10.16c.794.928 1.802 1.389 3.03 1.389z"/>
    </symbol>
    <symbol id="icon-modal-close" viewBox="0 0 32 32">
      <path stroke-linejoin="round" stroke-linecap="round" stroke-width="2.286" d="M24 8 8 24M8 8l16 16"/>
    </symbol>
    <symbol id="icon-modal-email" viewBox="0 0 32 32">
      <path stroke-linejoin="round" stroke-linecap="round" stroke-width="2.667" d="M5.333 5.333h21.333c1.467 0 2.667 1.2 2.667 2.667v16c0 1.467-1.2 2.667-2.667 2.667H5.333A2.675 2.675 0 0 1 2.666 24V8c0-1.467 1.2-2.667 2.667-2.667z"/>
      <path stroke-linejoin="round" stroke-linecap="round" stroke-width="2.667" d="M29.333 8 16 17.333 2.667 8"/>
    </symbol>
    <symbol id="icon-modal-name" viewBox="0 0 32 32">
      <path stroke-linejoin="round" stroke-linecap="round" stroke-width="2.667" d="M26.667 28v-2.667A5.333 5.333 0 0 0 21.334 20H10.667a5.333 5.333 0 0 0-5.333 5.333V28M16 14.667a5.333 5.333 0 1 0 0-10.666 5.333 5.333 0 1 0 0 10.666z"/>
    </symbol>
    <symbol id="icon-modal-phone" viewBox="0 0 32 32">
      <path stroke-linejoin="round" stroke-linecap="round" stroke-width="2.667" d="M29.333 22.56v4.009a2.668 2.668 0 0 1-2.917 2.656l.011.001c-4.327-.482-8.236-1.943-11.607-4.155l.1.062c-3.242-2.081-5.919-4.758-7.938-7.897l-.062-.103C4.762 13.847 3.3 9.919 2.837 5.691l-.01-.118A2.667 2.667 0 0 1 5.48 2.666h4.026c1.341 0 2.451.99 2.639 2.279l.002.014c.169 1.28.483 2.537.933 3.747a2.655 2.655 0 0 1-.6 2.813l-1.693 1.693c1.932 3.356 4.644 6.068 7.897 7.945l.103.055 1.693-1.693a2.659 2.659 0 0 1 2.832-.594l-.018-.006c1.209.452 2.467.765 3.747.933a2.67 2.67 0 0 1 2.294 2.641l-.001.07v-.003z"/>
    </symbol>
    <symbol id="icon-modal-wrong-fill" viewBox="0 0 32 32">
      <path fill="#e74a3b" style="fill:var(--color7, #e74a3b)" d="M14.667 20h2.667v2.667h-2.667zm0-10.667h2.667v8h-2.667zm1.32-6.666C8.627 2.667 2.667 8.64 2.667 16s5.96 13.333 13.32 13.333c7.373 0 13.347-5.973 13.347-13.333S23.361 2.667 15.987 2.667zm.013 24c-5.893 0-10.667-4.773-10.667-10.667S10.106 5.333 16 5.333 26.667 10.106 26.667 16 21.894 26.667 16 26.667z"/>
    </symbol>
    <symbol id="icon-taste-pointer" viewBox="0 0 32 32">
      <path stroke-linejoin="round" stroke-linecap="round" stroke-width="1.333" d="M9.143 16h13.715m-.001 0-3.431-3.428M22.857 16l-3.429 3.428M16 30.857c8.205 0 14.857-6.652 14.857-14.857S24.205 1.143 16 1.143C7.795 1.143 1.143 7.795 1.143 16S7.795 30.857 16 30.857z"/>
    </symbol>
    <symbol id="icon-twitter" viewBox="0 0 32 32">
      <path stroke-linejoin="round" stroke-linecap="round" stroke-width="2" d="M30.667 4a14.37 14.37 0 0 1-4.084 2.013l-.103.027a5.973 5.973 0 0 0-10.479 4.004v-.004 1.333a14.154 14.154 0 0 1-6.838-1.55l.08.037C7.15 8.807 4.683 6.297 3.335 4.38c0-.001-4.667 12.953 7.333 18.287a15.387 15.387 0 0 1-9.364 2.666l.031.001c12 6.667 26.667 0 26.667-15.333 0-.372-.037-.741-.107-1.107a10.277 10.277 0 0 0 2.758-4.822l.015-.071z"/>
    </symbol>
  </defs>
</svg>
