<svg xmlns="http://www.w3.org/2000/svg" width="32" height="32" fill="none"><path fill="#111" d="M13.822 2.413 21.35 9.95l.08-.08a.856.856 0 0 1 1.184-.013l.006.006.867.867c.305.304.316.77.084 1.093l-.005.008-.143.192 6.16 6.16c.55.55.55 1.43 0 1.98l-9.43 9.43c-.55.55-1.43.55-1.98 0l-4.447-4.448a.843.843 0 0 1-1.255.072l-2.6-2.6a.856.856 0 0 1-.013-1.184l.006-.008.077-.076-7.527-7.527c-.55-.55-.55-1.43 0-1.98l9.43-9.43c.55-.55 1.43-.55 1.98 0v.002zm6.582 8.48-1.756-1.755a.592.592 0 0 0-.85 0l-3.58 3.58a.607.607 0 0 0 0 .86l1.75 1.75.61-.61-1.566-1.566 3.21-3.22 1.57 1.575zm-5.075 5.072-1.755-1.754a.592.592 0 0 0-.85 0l-3.58 3.58-.005.006-.005.005c-.24.23-.24.61 0 .85l1.752 1.752.617-.616-1.57-1.564 3.22-3.21 1.563 1.563zm-6.507-7.77 3.58 3.58c.24.24.62.24.85-.01l3.58-3.58a.579.579 0 0 0 .18-.42h.01c0-.15-.06-.31-.18-.43l-3.58-3.58a.605.605 0 0 0-.86 0l-3.58 3.59c-.24.23-.24.61 0 .85zm-5.07 5.07 3.58 3.58c.24.24.62.24.85 0l3.58-3.58a.58.58 0 0 0 .18-.43h.01c0-.16-.06-.31-.18-.43l-3.58-3.58a.592.592 0 0 0-.85 0l-3.59 3.59c-.24.23-.24.61 0 .85zm6.933 8.753 2.362 2.364 9.636-13.04-.654-.655z"/><path fill="#fd9222" d="M13.822 2.413 21.35 9.95l.08-.08a.856.856 0 0 1 1.184-.013l.006.006.867.867c.305.304.316.77.084 1.093l-.005.008-.143.192 6.16 6.16c.55.55.55 1.43 0 1.98l-9.43 9.43c-.55.55-1.43.55-1.98 0l-4.447-4.448a.843.843 0 0 1-1.255.072l-2.6-2.6a.856.856 0 0 1-.013-1.184l.006-.008.077-.076-7.527-7.527c-.55-.55-.55-1.43 0-1.98l9.43-9.43c.55-.55 1.43-.55 1.98 0v.002zm6.582 8.48-1.756-1.755a.592.592 0 0 0-.85 0l-3.58 3.58a.607.607 0 0 0 0 .86l1.75 1.75.61-.61-1.566-1.566 3.21-3.22 1.57 1.575zm-5.075 5.072-1.755-1.754a.592.592 0 0 0-.85 0l-3.58 3.58-.005.006-.005.005c-.24.23-.24.61 0 .85l1.752 1.752.617-.616-1.57-1.564 3.22-3.21 1.563 1.563zm-6.507-7.77 3.58 3.58c.24.24.62.24.85-.01l3.58-3.58a.579.579 0 0 0 .18-.42h.01c0-.15-.06-.31-.18-.43l-3.58-3.58a.605.605 0 0 0-.86 0l-3.58 3.59c-.24.23-.24.61 0 .85zm-5.07 5.07 3.58 3.58c.24.24.62.24.85 0l3.58-3.58a.58.58 0 0 0 .18-.43h.01c0-.16-.06-.31-.18-.43l-3.58-3.58a.592.592 0 0 0-.85 0l-3.59 3.59c-.24.23-.24.61 0 .85zm6.933 8.753 2.362 2.364 9.636-13.04-.654-.655z"/></svg>